<?xml version="1.0" standalone="no"?><svg xmlns="http://www.w3.org/2000/svg" viewBox="0 0 1440 320"><path fill="#0099ff" fill-opacity="1" d="M0,192L26.7,202.7C53.3,213,107,235,160,213.3C213.3,192,267,128,320,128C373.3,128,427,192,480,202.7C533.3,213,587,171,640,128C693.3,85,747,43,800,69.3C853.3,96,907,192,960,197.3C1013.3,203,1067,117,1120,90.7C1173.3,64,1227,96,1280,106.7C1333.3,117,1387,107,1413,101.3L1440,96L1440,320L1413.3,320C1386.7,320,1333,320,1280,320C1226.7,320,1173,320,1120,320C1066.7,320,1013,320,960,320C906.7,320,853,320,800,320C746.7,320,693,320,640,320C586.7,320,533,320,480,320C426.7,320,373,320,320,320C266.7,320,213,320,160,320C106.7,320,53,320,27,320L0,320Z"></path></svg>