<?xml version="1.0" standalone="no"?>
<svg viewBox="0 0 200 200" xmlns="http://www.w3.org/2000/svg">
  <path fill="#FF0066" d="M40.4,-71.3C51.4,-63.5,58.8,-50.9,64.4,-38.2C70,-25.5,73.8,-12.7,76.4,1.5C79,15.8,80.5,31.6,74.3,43.2C68.2,54.9,54.3,62.5,40.6,69.7C27,77,13.5,83.9,-1,85.6C-15.4,87.3,-30.9,83.7,-42.5,75.3C-54.1,66.9,-61.8,53.5,-69.7,40.1C-77.7,26.8,-85.7,13.4,-86.7,-0.5C-87.6,-14.5,-81.3,-28.9,-74,-43.3C-66.7,-57.7,-58.3,-72.1,-45.8,-79.1C-33.3,-86,-16.6,-85.5,-1,-83.8C14.7,-82.1,29.3,-79.1,40.4,-71.3Z" transform="translate(100 100)" />
</svg>
