<?xml version="1.0" standalone="no"?>
<svg viewBox="0 0 200 200" xmlns="http://www.w3.org/2000/svg">
  <path fill="#215080" d="M38,-60.8C50.9,-58.3,64.3,-51.6,70.7,-40.7C77.2,-29.9,76.8,-14.9,72.5,-2.5C68.3,10,60.2,20,51.9,27.7C43.6,35.4,35.1,40.7,26.4,47.6C17.7,54.5,8.9,63,-1.5,65.7C-11.9,68.4,-23.9,65.2,-31.8,57.9C-39.6,50.5,-43.4,38.9,-47.5,28.5C-51.6,18.2,-56,9.1,-61.8,-3.4C-67.7,-15.8,-74.9,-31.6,-72.4,-44.8C-70,-57.9,-57.8,-68.4,-44.1,-70.4C-30.4,-72.4,-15.2,-65.9,-1.3,-63.6C12.5,-61.3,25.1,-63.2,38,-60.8Z" transform="translate(100 100)" />
</svg>
