<svg class="svg-icon" style="width: 1em; height: 1em;vertical-align: middle;fill: currentColor;overflow: hidden;" viewBox="0 0 1024 1024" version="1.1" xmlns="http://www.w3.org/2000/svg"><path d="M544 873.6l281.6-163.2c9.6-6.4 16-16 16-28.8v-323.2l-281.6 163.2c-6.4 3.2-9.6 6.4-16 6.4v345.6z m-64 0v-345.6c-6.4-3.2-9.6-3.2-16-6.4l-281.6-163.2v323.2c0 12.8 6.4 22.4 16 28.8l281.6 163.2z m329.6-569.6l-281.6-163.2c-9.6-6.4-22.4-6.4-32 0l-281.6 163.2 281.6 163.2c9.6 6.4 22.4 6.4 32 0l281.6-163.2z m48-44.8c28.8 16 48 48 48 83.2v342.4c0 35.2-19.2 67.2-48 83.2l-297.6 169.6c-28.8 16-67.2 16-96 0l-297.6-169.6c-28.8-16-48-48-48-83.2v-342.4c0-35.2 19.2-67.2 48-83.2l297.6-169.6c28.8-16 67.2-16 96 0l297.6 169.6z"  /></svg>