<?xml version="1.0" standalone="no"?><svg xmlns="http://www.w3.org/2000/svg" viewBox="0 0 1440 320"><path fill="#215080" fill-opacity="1" d="M0,320L14.1,266.7C28.2,213,56,107,85,64C112.9,21,141,43,169,74.7C197.6,107,226,149,254,186.7C282.4,224,311,256,339,266.7C367.1,277,395,267,424,250.7C451.8,235,480,213,508,213.3C536.5,213,565,235,593,240C621.2,245,649,235,678,197.3C705.9,160,734,96,762,90.7C790.6,85,819,139,847,149.3C875.3,160,904,128,932,128C960,128,988,160,1016,186.7C1044.7,213,1073,235,1101,245.3C1129.4,256,1158,256,1186,229.3C1214.1,203,1242,149,1271,122.7C1298.8,96,1327,96,1355,112C1383.5,128,1412,160,1426,176L1440,192L1440,320L1425.9,320C1411.8,320,1384,320,1355,320C1327.1,320,1299,320,1271,320C1242.4,320,1214,320,1186,320C1157.6,320,1129,320,1101,320C1072.9,320,1045,320,1016,320C988.2,320,960,320,932,320C903.5,320,875,320,847,320C818.8,320,791,320,762,320C734.1,320,706,320,678,320C649.4,320,621,320,593,320C564.7,320,536,320,508,320C480,320,452,320,424,320C395.3,320,367,320,339,320C310.6,320,282,320,254,320C225.9,320,198,320,169,320C141.2,320,113,320,85,320C56.5,320,28,320,14,320L0,320Z"></path></svg>