<?xml version="1.0" standalone="no"?><svg xmlns="http://www.w3.org/2000/svg" viewBox="0 0 1440 320"><path fill="#215080" fill-opacity="1" d="M0,96L14.1,106.7C28.2,117,56,139,85,160C112.9,181,141,203,169,213.3C197.6,224,226,224,254,192C282.4,160,311,96,339,58.7C367.1,21,395,11,424,37.3C451.8,64,480,128,508,160C536.5,192,565,192,593,181.3C621.2,171,649,149,678,144C705.9,139,734,149,762,154.7C790.6,160,819,160,847,149.3C875.3,139,904,117,932,122.7C960,128,988,160,1016,176C1044.7,192,1073,192,1101,202.7C1129.4,213,1158,235,1186,218.7C1214.1,203,1242,149,1271,144C1298.8,139,1327,181,1355,208C1383.5,235,1412,245,1426,250.7L1440,256L1440,320L1425.9,320C1411.8,320,1384,320,1355,320C1327.1,320,1299,320,1271,320C1242.4,320,1214,320,1186,320C1157.6,320,1129,320,1101,320C1072.9,320,1045,320,1016,320C988.2,320,960,320,932,320C903.5,320,875,320,847,320C818.8,320,791,320,762,320C734.1,320,706,320,678,320C649.4,320,621,320,593,320C564.7,320,536,320,508,320C480,320,452,320,424,320C395.3,320,367,320,339,320C310.6,320,282,320,254,320C225.9,320,198,320,169,320C141.2,320,113,320,85,320C56.5,320,28,320,14,320L0,320Z"></path></svg>